<?xml version="1.0" encoding="UTF-8" standalone="no"?>
<svg
   xmlns:dc="http://purl.org/dc/elements/1.1/"
   xmlns:cc="http://creativecommons.org/ns#"
   xmlns:rdf="http://www.w3.org/1999/02/22-rdf-syntax-ns#"
   xmlns:svg="http://www.w3.org/2000/svg"
   xmlns="http://www.w3.org/2000/svg"
   xmlns:sodipodi="http://sodipodi.sourceforge.net/DTD/sodipodi-0.dtd"
   xmlns:inkscape="http://www.inkscape.org/namespaces/inkscape"
   width="120mm"
   height="120mm"
   viewBox="-60 -60 120 120"
   sodipodi:docname="minimax.svg"
   version="1.1"
   id="svg879"
   inkscape:export-filename="/home/cobol/IAPasDeSoucis/MathProject/imgs/minimax_start.png"
   inkscape:export-xdpi="7102.5552"
   inkscape:export-ydpi="7102.5552"
   inkscape:version="1.0.1 (0767f8302a, 2020-10-17)">
  <defs
     id="defs881" />
  <sodipodi:namedview
     pagecolor="#ffffff"
     bordercolor="#666666"
     borderopacity="1.0"
     inkscape:pageopacity="0.0"
     inkscape:pageshadow="2"
     inkscape:zoom="1"
     inkscape:cx="226.77165"
     inkscape:cy="226.77165"
     inkscape:document-units="mm"
     inkscape:current-layer="Template"
     showgrid="false"
     units="mm"
     showguides="true"
     inkscape:guide-bbox="true"
     inkscape:snap-global="false"
     inkscape:snap-bbox="true"
     inkscape:snap-bbox-midpoints="true"
     inkscape:window-width="1366"
     inkscape:window-height="704"
     inkscape:window-x="0"
     inkscape:window-y="27"
     inkscape:window-maximized="1"
     inkscape:bbox-paths="true"
     inkscape:bbox-nodes="true"
     inkscape:snap-bbox-edge-midpoints="true"
     inkscape:snap-grids="true"
     id="namedview869"
     inkscape:document-rotation="0">
    <sodipodi:guide
       orientation="1,0"
       position="226.771653543,226.771653543"
       id="guide2827" />
    <sodipodi:guide
       orientation="0,1"
       position="226.771653543,226.771653543"
       id="guide2829" />
    <inkscape:grid
       type="xygrid"
       id="grid3072"
       empspacing="10"
       visible="true"
       enabled="true"
       snapvisiblegridlinesonly="true"
       units="mm"
       dotted="false"
       spacingx="0.1mm"
       spacingy="0.1mm" />
  </sodipodi:namedview>
  <metadata
     id="metadata2822">
    <rdf:RDF>
      <cc:Work
         rdf:about="">
        <dc:format>image/svg+xml</dc:format>
        <dc:type
           rdf:resource="http://purl.org/dc/dcmitype/StillImage" />
        <dc:title></dc:title>
      </cc:Work>
    </rdf:RDF>
  </metadata>
  <g
     inkscape:label="Layer 1"
     inkscape:groupmode="layer"
     id="Template"
     style="fill:none;stroke:black;stroke-width:0.05">
    <path
       id="rect1471"
       style="fill:#0000ff;stroke:#000000;stroke-width:2.89134;paint-order:stroke fill markers"
       d="M 179.50391 38.443359 L 179.50391 72.960938 L 82.435547 134.34961 L 91.847656 139.63477 L 181.9707 82.638672 L 221.86133 82.638672 L 345.89258 131.63086 L 365.53516 128.38086 L 237.47461 77.798828 L 235.11328 78.189453 L 235.11328 38.443359 L 179.50391 38.443359 z M 203.27539 85.402344 L 203.27539 148.69531 L 211.3418 148.69531 L 211.3418 85.402344 L 203.27539 85.402344 z "
       transform="matrix(0.26458333,0,0,0.26458333,-60,-60)" />
    <path
       id="path1499"
       style="fill:#d40000;stroke:#000000;stroke-width:2.89134;paint-order:stroke fill markers"
       d="M 354.14062 119.36133 A 19.858857 24.72026 0 0 0 334.2793 143.87695 A 19.858857 24.72026 0 0 0 337.68555 157.92773 L 289.43164 208.41797 L 293.74219 214.0332 L 341.94531 163.5957 A 19.858857 24.72026 0 0 0 351.29102 168.54688 L 351.29102 211.375 L 359.53516 211.375 L 359.53516 167.86914 A 19.858857 24.72026 0 0 0 366.0332 163.87695 L 412.4707 206 L 416.91016 200.56641 L 370.35938 158.33984 A 19.858857 24.72026 0 0 0 373.99414 144.28711 L 373.99414 144.28516 A 19.858857 24.72026 0 0 0 354.30078 119.36328 A 19.858857 24.72026 0 0 0 354.14062 119.36133 z M 78.066406 125.85352 A 19.858857 24.72026 0 0 0 58.205078 150.36914 A 19.858857 24.72026 0 0 0 59.640625 159.80078 L 24.548828 215.70312 L 31.304688 219.94336 L 63.941406 167.95312 A 19.858857 24.72026 0 0 0 77.898438 175.29297 A 19.858857 24.72026 0 0 0 85.171875 173.65625 L 116.18555 218.67969 L 122.82812 214.10547 L 91.558594 168.70898 A 19.858857 24.72026 0 0 0 97.921875 150.7793 L 97.921875 150.77734 A 19.858857 24.72026 0 0 0 78.226562 125.85547 A 19.858857 24.72026 0 0 0 78.066406 125.85352 z M 207.24219 138.96875 A 19.858857 24.72026 0 0 0 187.38086 163.48633 A 19.858857 24.72026 0 0 0 190.29688 176.58984 L 168.6582 217.19727 L 175.77539 220.99023 L 195.625 183.74023 A 19.858857 24.72026 0 0 0 207.07422 188.4082 A 19.858857 24.72026 0 0 0 216.53906 185.5293 L 235.86523 219.0625 L 242.85156 215.03516 L 222.43359 179.60547 A 19.858857 24.72026 0 0 0 227.0957 163.89453 L 227.09766 163.89258 A 19.858857 24.72026 0 0 0 207.40234 138.9707 A 19.858857 24.72026 0 0 0 207.24219 138.96875 z "
       transform="matrix(0.26458333,0,0,0.26458333,-60,-60)" />
    <rect
       style="fill:#0000ff;stroke:#000000;stroke-width:0.685127;paint-order:stroke fill markers"
       id="rect1611"
       width="11.743481"
       height="16.370514"
       x="-57.95261"
       y="-5.0197644" />
    <rect
       style="fill:#0000ff;stroke:#000000;stroke-width:0.663492;paint-order:stroke fill markers"
       id="rect1611-9"
       width="10.998978"
       height="16.392147"
       x="-34.965466"
       y="-5.9834385" />
    <rect
       style="fill:#0000ff;stroke:#000000;stroke-width:0.615025;paint-order:stroke fill markers"
       id="rect1611-3"
       width="9.4228916"
       height="16.440615"
       x="-19.277458"
       y="-4.9848905" />
    <rect
       style="fill:#0000ff;stroke:#000000;stroke-width:0.615317;paint-order:stroke fill markers"
       id="rect1611-6"
       width="9.4320135"
       height="16.440323"
       x="-1.7830464"
       y="-5.6542935" />
    <rect
       style="fill:#0000ff;stroke:#000000;stroke-width:0.628028;paint-order:stroke fill markers"
       id="rect1611-0"
       width="9.8333044"
       height="16.427612"
       x="13.262514"
       y="-6.1388888" />
    <rect
       style="fill:#0000ff;stroke:#000000;stroke-width:0.617972;paint-order:stroke fill markers"
       id="rect1611-62"
       width="9.5151024"
       height="16.437668"
       x="29.377903"
       y="-5.9366136" />
    <rect
       style="fill:#0000ff;stroke:#000000;stroke-width:0.663651;paint-order:stroke fill markers"
       id="rect1611-61"
       width="11.004342"
       height="16.391989"
       x="44.520779"
       y="-7.257103" />
    <text
       xml:space="preserve"
       style="font-size:10.5833px;line-height:1.25;font-family:sans-serif;letter-spacing:0px;fill:#ff0000;fill-opacity:1;stroke-width:0.0132292"
       x="-55.178612"
       y="7.359066"
       id="text1716"><tspan
         sodipodi:role="line"
         id="tspan1714"
         x="-55.178612"
         y="7.359066"
         style="fill:#ff0000;fill-opacity:1;stroke-width:0.0132292">4</tspan></text>
    <text
       xml:space="preserve"
       style="font-size:10.5833px;line-height:1.25;font-family:sans-serif;letter-spacing:0px;fill:#ff0000;fill-opacity:1;stroke:#000000;stroke-width:0.0132292"
       x="-32.64629"
       y="5.7701335"
       id="text1716-8"><tspan
         sodipodi:role="line"
         id="tspan1714-7"
         x="-32.64629"
         y="5.7701335"
         style="fill:#ff0000;fill-opacity:1;stroke-width:0.0132292">6</tspan></text>
    <text
       xml:space="preserve"
       style="font-size:10.5833px;line-height:1.25;font-family:sans-serif;letter-spacing:0px;fill:#ff0000;fill-opacity:1;stroke:#000000;stroke-width:0.0132292"
       x="-18.172117"
       y="7.0588303"
       id="text1716-9"><tspan
         sodipodi:role="line"
         id="tspan1714-2"
         x="-18.172117"
         y="7.0588303"
         style="fill:#ff0000;fill-opacity:1;stroke-width:0.0132292">7</tspan></text>
    <text
       xml:space="preserve"
       style="font-size:10.5833px;line-height:1.25;font-family:sans-serif;letter-spacing:0px;fill:#ff0000;fill-opacity:1;stroke:#000000;stroke-width:0.0132292"
       x="-0.092534974"
       y="6.5638833"
       id="text1716-0"><tspan
         sodipodi:role="line"
         id="tspan1714-23"
         x="-0.092534974"
         y="6.5638833"
         style="fill:#ff0000;fill-opacity:1;stroke-width:0.0132292">2</tspan></text>
    <text
       xml:space="preserve"
       style="font-size:10.5833px;line-height:1.25;font-family:sans-serif;letter-spacing:0px;fill:#ff0000;fill-opacity:1;stroke:#000000;stroke-width:0.0132292"
       x="15.05344"
       y="5.8734379"
       id="text1716-7"><tspan
         sodipodi:role="line"
         id="tspan1714-5"
         x="15.05344"
         y="5.8734379"
         style="fill:#ff0000;fill-opacity:1;stroke-width:0.0132292">9</tspan></text>
    <text
       xml:space="preserve"
       style="font-size:10.5833px;line-height:1.25;font-family:sans-serif;letter-spacing:0px;fill:#ff0000;fill-opacity:1;stroke:#000000;stroke-width:0.0132292"
       x="31.609842"
       y="6.3410854"
       id="text1716-92"><tspan
         sodipodi:role="line"
         id="tspan1714-28"
         x="31.609842"
         y="6.3410854"
         style="fill:#ff0000;fill-opacity:1;stroke-width:0.0132292">5</tspan></text>
    <text
       xml:space="preserve"
       style="font-size:10.5833px;line-height:1.25;font-family:sans-serif;letter-spacing:0px;fill:#ff0000;fill-opacity:1;stroke:#000000;stroke-width:0.0132292"
       x="47.481499"
       y="4.8096623"
       id="text1716-97"><tspan
         sodipodi:role="line"
         id="tspan1714-3"
         x="47.481499"
         y="4.8096623"
         style="fill:#ff0000;fill-opacity:1;stroke-width:0.0132292">1</tspan></text>
    <text
       xml:space="preserve"
       style="font-size:10.5833px;line-height:1.25;font-family:sans-serif;letter-spacing:0px;fill:#0000ff;fill-opacity:1;stroke-width:0.0132292"
       x="-42.828545"
       y="-16.617628"
       id="text1304"><tspan
         sodipodi:role="line"
         id="tspan1302"
         x="-42.828545"
         y="-16.617628"
         style="fill:#0000ff;fill-opacity:1;stroke-width:0.0132292">4</tspan></text>
    <text
       xml:space="preserve"
       style="font-size:10.5833px;line-height:1.25;font-family:sans-serif;letter-spacing:0px;fill:#0000ff;fill-opacity:1;stroke:#000000;stroke-width:0.0132292"
       x="-8.281312"
       y="-13.183208"
       id="text1304-3"><tspan
         sodipodi:role="line"
         id="tspan1302-6"
         x="-8.281312"
         y="-13.183208"
         style="fill:#0000ff;fill-opacity:1;stroke-width:0.0132292">2</tspan></text>
    <text
       xml:space="preserve"
       style="font-size:10.5833px;line-height:1.25;font-family:sans-serif;letter-spacing:0px;fill:#0000ff;fill-opacity:1;stroke:#000000;stroke-width:0.0132292"
       x="30.591639"
       y="-18.506315"
       id="text1304-7"><tspan
         sodipodi:role="line"
         id="tspan1302-5"
         x="30.591639"
         y="-18.506315"
         style="fill:#0000ff;fill-opacity:1;stroke-width:0.0132292">1</tspan></text>
  </g>
</svg>
