<?xml version="1.0" encoding="UTF-8" standalone="no"?>
<svg
   xmlns:dc="http://purl.org/dc/elements/1.1/"
   xmlns:cc="http://creativecommons.org/ns#"
   xmlns:rdf="http://www.w3.org/1999/02/22-rdf-syntax-ns#"
   xmlns:svg="http://www.w3.org/2000/svg"
   xmlns="http://www.w3.org/2000/svg"
   xmlns:xlink="http://www.w3.org/1999/xlink"
   xmlns:sodipodi="http://sodipodi.sourceforge.net/DTD/sodipodi-0.dtd"
   xmlns:inkscape="http://www.inkscape.org/namespaces/inkscape"
   width="120mm"
   height="120mm"
   viewBox="-60 -60 120 120"
   sodipodi:docname="my_linked_list.svg"
   version="1.1"
   id="svg1123"
   inkscape:version="1.0.1 (0767f8302a, 2020-10-17)"
   inkscape:export-filename="/home/cobol/IAPasDeSoucis/MathProject/imgs/my_linked_list.png"
   inkscape:export-xdpi="96"
   inkscape:export-ydpi="96">
  <defs
     id="defs1125">
    <linearGradient
       inkscape:collect="always"
       id="linearGradient1622">
      <stop
         style="stop-color:#ffffff;stop-opacity:1;"
         offset="0"
         id="stop1618" />
      <stop
         style="stop-color:#ffffff;stop-opacity:0;"
         offset="1"
         id="stop1620" />
    </linearGradient>
    <linearGradient
       inkscape:collect="always"
       xlink:href="#linearGradient1622"
       id="linearGradient1624"
       x1="19.731957"
       y1="16.746295"
       x2="24.737114"
       y2="16.746295"
       gradientUnits="userSpaceOnUse" />
  </defs>
  <sodipodi:namedview
     pagecolor="#ffffff"
     bordercolor="#666666"
     borderopacity="1.0"
     inkscape:pageopacity="0.0"
     inkscape:pageshadow="2"
     inkscape:zoom="1.4127382"
     inkscape:cx="318.907"
     inkscape:cy="236.68928"
     inkscape:document-units="mm"
     inkscape:current-layer="Template"
     showgrid="false"
     units="mm"
     showguides="true"
     inkscape:guide-bbox="true"
     inkscape:snap-global="false"
     inkscape:snap-bbox="true"
     inkscape:snap-bbox-midpoints="true"
     inkscape:window-width="1366"
     inkscape:window-height="704"
     inkscape:window-x="0"
     inkscape:window-y="27"
     inkscape:window-maximized="1"
     inkscape:bbox-paths="true"
     inkscape:bbox-nodes="true"
     inkscape:snap-bbox-edge-midpoints="true"
     inkscape:snap-grids="true"
     id="namedview1113"
     inkscape:document-rotation="0">
    <sodipodi:guide
       orientation="1,0"
       position="226.771653543,226.771653543"
       id="guide2827" />
    <sodipodi:guide
       orientation="0,1"
       position="226.771653543,226.771653543"
       id="guide2829" />
    <inkscape:grid
       type="xygrid"
       id="grid3072"
       empspacing="10"
       visible="true"
       enabled="true"
       snapvisiblegridlinesonly="true"
       units="mm"
       dotted="false"
       spacingx="0.1mm"
       spacingy="0.1mm" />
  </sodipodi:namedview>
  <metadata
     id="metadata2822">
    <rdf:RDF>
      <cc:Work
         rdf:about="">
        <dc:format>image/svg+xml</dc:format>
        <dc:type
           rdf:resource="http://purl.org/dc/dcmitype/StillImage" />
        <dc:title></dc:title>
      </cc:Work>
    </rdf:RDF>
  </metadata>
  <g
     inkscape:label="Layer 1"
     inkscape:groupmode="layer"
     id="Template"
     style="fill:none;stroke:black;stroke-width:0.05">
    <path
       id="rect1688"
       style="opacity:1;fill:#ffffff;fill-opacity:1;stroke:#000000;stroke-width:1.18128;stroke-miterlimit:4;stroke-dasharray:none;stroke-opacity:1;paint-order:stroke fill markers"
       d="m -32.640854,-5.6151314 c 4.259617,0 8.519234,0 12.778851,0 0,3.7434209 0,7.4868419 0,11.2302628 -4.259617,0 -8.519234,0 -12.778851,0 0,-3.7434209 0,-7.4868419 0,-11.2302628 z" />
    <path
       id="rect1688-3"
       style="opacity:1;fill:#ffffff;fill-opacity:1;stroke:#000000;stroke-width:1.25048;stroke-miterlimit:4;stroke-dasharray:none;stroke-opacity:1;paint-order:stroke fill markers"
       d="m -6.8997579,-5.82689 c 4.5998386,0 9.1996772,0 13.7995158,0 0,3.8845933 0,7.7691867 0,11.65378 -4.5998386,0 -9.1996772,0 -13.7995158,0 0,-3.8845933 0,-7.7691867 0,-11.65378 z" />
    <path
       id="rect1688-6"
       style="opacity:1;fill:#ffffff;fill-opacity:1;stroke:#000000;stroke-width:1.32447;stroke-miterlimit:4;stroke-dasharray:none;stroke-opacity:1;paint-order:stroke fill markers"
       d="m 19.687233,-5.7898974 c 5.193214,0 10.386427,0 15.579641,0 0,3.8599316 0,7.7198632 0,11.5797948 -5.193214,0 -10.386427,0 -15.579641,0 0,-3.8599316 0,-7.7198632 0,-11.5797948 z" />
    <path
       id="path1865"
       style="fill:none;stroke:#000000;stroke-width:0.264583px;stroke-linecap:butt;stroke-linejoin:miter;stroke-opacity:1"
       d="m -0.61217608,-5.6990922 c -0.009419,4.1258145 -0.0188383,8.2516291 -0.0282575,12.3774436" />
    <path
       id="path1867"
       style="fill:none;stroke:#000000;stroke-width:0.264583px;stroke-linecap:butt;stroke-linejoin:miter;stroke-opacity:1"
       d="m -26.934312,-5.9836648 c 0.01487,4.1350732 0.02973,8.2701464 0.0446,12.4052196" />
    <path
       id="path1869"
       style="fill:none;stroke:#000000;stroke-width:0.264583px;stroke-linecap:butt;stroke-linejoin:miter;stroke-opacity:1"
       d="m 27.194098,-5.4086379 c -0.01954,3.8071945 -0.03909,7.6143889 -0.05863,11.4215834" />
    <rect
       style="fill:#000000;stroke:#000000;stroke-width:1.674;paint-order:stroke fill markers"
       id="rect395"
       width="8.6048584"
       height="0.62039554"
       x="-20.487843"
       y="-0.14577217" />
    <rect
       style="fill:#000000;stroke:#000000;stroke-width:1.674;paint-order:stroke fill markers"
       id="rect395-3"
       width="8.6048584"
       height="0.62039554"
       x="4.922884"
       y="0.048088931" />
    <text
       xml:space="preserve"
       style="font-size:7.01559px;line-height:1.25;font-family:sans-serif;letter-spacing:0px;fill:#000000;fill-opacity:1;stroke-width:0.00876954"
       x="49.335621"
       y="2.8899839"
       id="text493"
       transform="scale(0.93505519,1.0694556)"><tspan
         sodipodi:role="line"
         id="tspan491"
         x="49.335621"
         y="2.8899839"
         style="fill:#000000;fill-opacity:1;stroke-width:0.00876954" /></text>
    <path
       sodipodi:type="star"
       style="fill:#000000;fill-opacity:1;stroke:#000000;stroke-width:1.674;paint-order:stroke fill markers"
       id="path1318"
       sodipodi:sides="3"
       sodipodi:cx="-10.855725"
       sodipodi:cy="-0.29007953"
       sodipodi:r1="2.0403011"
       sodipodi:r2="1.0201505"
       sodipodi:arg1="0.080275646"
       sodipodi:arg2="1.1274732"
       inkscape:flatsided="true"
       inkscape:rounded="0"
       inkscape:randomized="0"
       d="M -8.8219947,-0.1264689 -12.014282,1.3893775 -11.7309,-2.1331472 Z"
       inkscape:transform-center-x="0.25728989"
       inkscape:transform-center-y="-1.6324554"
       transform="rotate(-1.4867145,12.402611,1.7037389)" />
    <path
       sodipodi:type="star"
       style="fill:#000000;fill-opacity:1;stroke:#000000;stroke-width:1.674;paint-order:stroke fill markers"
       id="path1318-7"
       sodipodi:sides="3"
       sodipodi:cx="-10.855725"
       sodipodi:cy="-0.29007953"
       sodipodi:r1="2.0403011"
       sodipodi:r2="1.0201505"
       sodipodi:arg1="0.080275646"
       sodipodi:arg2="1.1274732"
       inkscape:flatsided="true"
       inkscape:rounded="0"
       inkscape:randomized="0"
       d="M -8.8219947,-0.1264689 -12.014282,1.3893775 -11.7309,-2.1331472 Z"
       inkscape:transform-center-x="0.25728989"
       inkscape:transform-center-y="-1.6324554"
       transform="rotate(-1.4867145,33.953071,-1008.9933)" />
    <g
       aria-label="2"
       transform="scale(1.1095318,0.90128107)"
       id="text1373"
       style="font-size:6.10082px;line-height:1.25;font-family:sans-serif;letter-spacing:0px;fill:#000000;fill-opacity:1;stroke:#000000;stroke-width:0.00762607;stroke-opacity:1">
      <path
         id="path1520"
         style="fill:#000000;fill-opacity:1;stroke:#000000;stroke-width:0.00762607;stroke-opacity:1"
         d="m -27.744068,1.668244 c 0.700045,0 1.400091,0 2.100136,0 -0.11535,0.9844995 -1.349187,0.2992289 -1.976945,0.5347219 -1.07147,0.2570699 -0.923137,-0.813338 -0.214827,-1.21289429 0.613468,-0.61583211 1.542516,-1.19132777 1.526538,-2.15756351 -0.208276,-0.9462093 -1.280964,-0.6531623 -1.903198,-0.4999027 -0.206208,-1.012424 1.611147,-0.7949827 2.146011,-0.3172143 0.834053,0.7603408 0.193341,1.95985228 -0.552819,2.51227188 -0.384552,0.37047562 -0.754707,0.75584652 -1.124896,1.14058102 z" />
    </g>
    <g
       aria-label="3"
       transform="scale(1.0841962,0.92234228)"
       id="text1377"
       style="font-size:6.39988px;line-height:1.25;font-family:sans-serif;letter-spacing:0px;fill:#000000;fill-opacity:1;stroke-width:0.00799989">
      <path
         id="path1556"
         style="fill:#000000;fill-opacity:1;stroke-width:0.00799989"
         d="m -3.0459249,-0.24166943 c 1.0358974,0.12623275 1.3150506,1.66499383 0.4748937,2.22537743 -0.6974459,0.5369698 -1.6446243,0.4051179 -2.4399765,0.2235127 -0.3900157,-0.319351 -0.059025,-0.9254834 0.3855482,-0.4678256 0.5943201,0.1824361 1.4779654,0.1804235 1.8345778,-0.432281 0.4026615,-0.79285915 -0.5666746,-1.50160393 -1.2980963,-1.24441446 -0.6009025,-0.26780641 0.1399865,-0.8509537 0.548322,-0.53044713 0.8776114,-0.008038 0.9669279,-1.37904391 0.06858,-1.46069621 -0.4325166,-0.2456155 -1.6070508,0.5378844 -1.5165975,-0.210038 0.5048272,-0.5583784 1.4535166,-0.3521407 2.1059248,-0.1688306 0.8206874,0.2865928 0.9351554,1.52257968 0.1806115,1.94750348 -0.1050647,0.0620271 -0.2227901,0.10243101 -0.343788,0.11813939 z" />
    </g>
    <text
       xml:space="preserve"
       style="font-size:6.61801px;line-height:1.25;font-family:sans-serif;letter-spacing:0px;fill:#000000;fill-opacity:1;stroke-width:0.00827254"
       x="19.493582"
       y="2.7507381"
       id="text1381"
       transform="scale(1.0799483,0.92597025)"><tspan
         sodipodi:role="line"
         id="tspan1379"
         x="19.493582"
         y="2.7507381"
         style="fill:#000000;fill-opacity:1;stroke-width:0.00827254">4</tspan></text>
    <path
       id="rect1688-35"
       style="opacity:1;fill:#ffffff;fill-opacity:1;stroke:#000000;stroke-width:1.18128;stroke-miterlimit:4;stroke-dasharray:none;stroke-opacity:1;paint-order:stroke fill markers"
       d="m -56.250556,-5.6815315 c 4.259617,0 8.519234,0 12.778851,0 0,3.743421 0,7.486842 0,11.230263 -4.259617,0 -8.519234,0 -12.778851,0 0,-3.743421 0,-7.486842 0,-11.230263 z" />
    <path
       style="fill:none;stroke:#000000;stroke-width:0.264583px;stroke-linecap:butt;stroke-linejoin:miter;stroke-opacity:1"
       d="m -50.559302,-5.9491261 -0.02326,11.8741347"
       id="path1434" />
    <rect
       style="fill:#000000;stroke:#000000;stroke-width:1.674;paint-order:stroke fill markers"
       id="rect395-6"
       width="8.6048584"
       height="0.62039554"
       x="-45.517567"
       y="-0.13072395" />
    <path
       sodipodi:type="star"
       style="fill:#000000;fill-opacity:1;stroke:#000000;stroke-width:1.674;paint-order:stroke fill markers"
       id="path1318-2"
       sodipodi:sides="3"
       sodipodi:cx="-10.855725"
       sodipodi:cy="-0.29007953"
       sodipodi:r1="2.0403011"
       sodipodi:r2="1.0201505"
       sodipodi:arg1="0.080275646"
       sodipodi:arg2="1.1274732"
       inkscape:flatsided="true"
       inkscape:rounded="0"
       inkscape:randomized="0"
       d="M -8.8219947,-0.1264689 -12.014282,1.3893775 -11.7309,-2.1331472 Z"
       inkscape:transform-center-x="0.25728989"
       inkscape:transform-center-y="-1.6324554"
       transform="rotate(-1.4867145,-5.5339622,998.15717)" />
    <g
       aria-label="1"
       transform="scale(1.1455062,0.87297651)"
       id="text1468"
       style="font-size:7.15329px;line-height:1.25;font-family:sans-serif;letter-spacing:0px;fill:#000000;fill-opacity:1;stroke-width:0.00894166">
      <path
         id="path1470"
         style="fill:#000000;fill-opacity:1;stroke-width:0.00894166"
         d="m -47.849507,1.7794315 c 0.38421,0 0.768419,0 1.152629,0 0,-1.3261063 0,-2.6522126 0,-3.9783189 -0.417974,0.083828 -0.835947,0.1676553 -1.253921,0.2514829 -0.186965,-1.2603907 2.374585,-1.2498339 1.960988,0.1282019 0.01019,1.13111906 -0.05616,2.27044165 0.0091,3.3951281 0.176648,0.5243125 1.413044,-0.205004 1.075564,0.6622937 -0.918001,0.3173297 -1.972515,0.045157 -2.94435,0.1349918 -3.3e-5,-0.1979264 6.7e-5,-0.3958545 -4.9e-5,-0.5937795 z" />
    </g>
    <rect
       style="fill:#000000;fill-opacity:1;stroke:#000000;stroke-width:1.674;stroke-opacity:1;paint-order:stroke fill markers"
       id="rect1606"
       width="0.72797185"
       height="10.084082"
       x="31.001179"
       y="1.5582572" />
    <path
       sodipodi:type="star"
       style="fill:#000000;fill-opacity:1;stroke:#000000;stroke-width:1.674;stroke-opacity:1;paint-order:stroke fill markers"
       id="path1608"
       sodipodi:sides="3"
       sodipodi:cx="31.374663"
       sodipodi:cy="12.743081"
       sodipodi:r1="2.1237824"
       sodipodi:r2="1.0618912"
       sodipodi:arg1="-0.50076448"
       sodipodi:arg2="0.54643308"
       inkscape:flatsided="true"
       inkscape:rounded="0"
       inkscape:randomized="0"
       d="M 33.237678,11.723461 31.326172,14.86631 29.560138,11.639472 Z"
       inkscape:transform-center-x="-0.024244517"
       inkscape:transform-center-y="0.50980916" />
    <rect
       style="fill:#ffffff;fill-opacity:1;stroke:#000000;stroke-width:1.58752;stroke-opacity:1;paint-order:stroke fill markers"
       id="rect1610"
       width="17.582569"
       height="12.25633"
       x="17.601049"
       y="17.376255" />
    <path
       style="fill:none;stroke:#000000;stroke-width:0.264583px;stroke-linecap:butt;stroke-linejoin:miter;stroke-opacity:1"
       d="M 26.474061,17.27856 26.67414,29.929447"
       id="path1612"
       sodipodi:nodetypes="cc" />
    <text
       xml:space="preserve"
       style="font-size:7.42692px;line-height:1.25;font-family:sans-serif;letter-spacing:0px;fill:#000000;fill-opacity:1;stroke-width:0.00928369"
       x="25.773752"
       y="29.704422"
       id="text1616"
       transform="scale(1.1214165,0.89172935)"><tspan
         sodipodi:role="line"
         id="tspan1614"
         x="25.773752"
         y="29.704422"
         style="fill:#000000;fill-opacity:1;stroke-width:0.00928369">5</tspan></text>
    <rect
       style="fill:#000000;stroke:#000000;stroke-width:1.674;paint-order:stroke fill markers"
       id="rect395-9"
       width="8.6048584"
       height="0.62039554"
       x="10.85715"
       y="23.426611" />
    <path
       sodipodi:type="star"
       style="fill:#000000;fill-opacity:1;stroke:#000000;stroke-width:1.674;stroke-opacity:1;paint-order:stroke fill markers"
       id="path1641"
       sodipodi:sides="3"
       sodipodi:cx="9.2518869"
       sodipodi:cy="23.604659"
       sodipodi:r1="2.3705263"
       sodipodi:r2="1.1852632"
       sodipodi:arg1="1.0370717"
       sodipodi:arg2="2.0842693"
       inkscape:flatsided="true"
       inkscape:rounded="0"
       inkscape:randomized="0"
       d="M 10.457877,25.645487 6.8814825,23.628661 10.416302,21.539826 Z"
       inkscape:transform-center-x="0.58220839"
       inkscape:transform-center-y="-0.012002589" />
    <text
       xml:space="preserve"
       style="font-size:8.3064px;line-height:1.25;font-family:sans-serif;letter-spacing:0px;fill:#000000;fill-opacity:1;stroke-width:0.0103831"
       x="-8.6222458"
       y="27.08004"
       id="text1649"
       transform="scale(1.0087579,0.99131813)"><tspan
         sodipodi:role="line"
         id="tspan1647"
         x="-8.6222458"
         y="27.08004"
         style="fill:#000000;fill-opacity:1;stroke-width:0.0103831">NIL</tspan></text>
  </g>
</svg>
