<?xml version="1.0" encoding="UTF-8" standalone="no"?>
<svg
   xmlns:dc="http://purl.org/dc/elements/1.1/"
   xmlns:cc="http://creativecommons.org/ns#"
   xmlns:rdf="http://www.w3.org/1999/02/22-rdf-syntax-ns#"
   xmlns:svg="http://www.w3.org/2000/svg"
   xmlns="http://www.w3.org/2000/svg"
   xmlns:sodipodi="http://sodipodi.sourceforge.net/DTD/sodipodi-0.dtd"
   xmlns:inkscape="http://www.inkscape.org/namespaces/inkscape"
   width="120mm"
   height="120mm"
   viewBox="-60 -60 120 120"
   sodipodi:docname="unsimplified.svg"
   version="1.1"
   id="svg1123"
   inkscape:version="1.0.1 (0767f8302a, 2020-10-17)">
  <defs
     id="defs1125" />
  <sodipodi:namedview
     pagecolor="#ffffff"
     bordercolor="#666666"
     borderopacity="1.0"
     inkscape:pageopacity="0.0"
     inkscape:pageshadow="2"
     inkscape:zoom="1.4127382"
     inkscape:cx="213.20154"
     inkscape:cy="236.68928"
     inkscape:document-units="mm"
     inkscape:current-layer="Template"
     showgrid="false"
     units="mm"
     showguides="true"
     inkscape:guide-bbox="true"
     inkscape:snap-global="false"
     inkscape:snap-bbox="true"
     inkscape:snap-bbox-midpoints="true"
     inkscape:window-width="1366"
     inkscape:window-height="704"
     inkscape:window-x="0"
     inkscape:window-y="27"
     inkscape:window-maximized="1"
     inkscape:bbox-paths="true"
     inkscape:bbox-nodes="true"
     inkscape:snap-bbox-edge-midpoints="true"
     inkscape:snap-grids="true"
     id="namedview1113"
     inkscape:document-rotation="0">
    <sodipodi:guide
       orientation="1,0"
       position="226.771653543,226.771653543"
       id="guide2827" />
    <sodipodi:guide
       orientation="0,1"
       position="226.771653543,226.771653543"
       id="guide2829" />
    <inkscape:grid
       type="xygrid"
       id="grid3072"
       empspacing="10"
       visible="true"
       enabled="true"
       snapvisiblegridlinesonly="true"
       units="mm"
       dotted="false"
       spacingx="0.1mm"
       spacingy="0.1mm" />
  </sodipodi:namedview>
  <metadata
     id="metadata2822">
    <rdf:RDF>
      <cc:Work
         rdf:about="">
        <dc:format>image/svg+xml</dc:format>
        <dc:type
           rdf:resource="http://purl.org/dc/dcmitype/StillImage" />
        <dc:title />
      </cc:Work>
    </rdf:RDF>
  </metadata>
  <g
     inkscape:label="Layer 1"
     inkscape:groupmode="layer"
     id="Template"
     style="fill:none;stroke:black;stroke-width:0.05">
    <path
       id="rect1688"
       style="opacity:1;fill:#ffffff;fill-opacity:1;stroke:#000000;stroke-width:1.18128;stroke-miterlimit:4;stroke-dasharray:none;stroke-opacity:1;paint-order:stroke fill markers"
       d="m -32.640854,-5.6151314 c 4.259617,0 8.519234,0 12.778851,0 0,3.7434209 0,7.4868419 0,11.2302628 -4.259617,0 -8.519234,0 -12.778851,0 0,-3.7434209 0,-7.4868419 0,-11.2302628 z" />
    <path
       id="rect1688-3"
       style="opacity:1;fill:#ffffff;fill-opacity:1;stroke:#000000;stroke-width:1.25048;stroke-miterlimit:4;stroke-dasharray:none;stroke-opacity:1;paint-order:stroke fill markers"
       d="m -6.8997579,-5.82689 c 4.5998386,0 9.1996772,0 13.7995158,0 0,3.8845933 0,7.7691867 0,11.65378 -4.5998386,0 -9.1996772,0 -13.7995158,0 0,-3.8845933 0,-7.7691867 0,-11.65378 z" />
    <path
       id="rect1688-6"
       style="opacity:1;fill:#ffffff;fill-opacity:1;stroke:#000000;stroke-width:1.32447;stroke-miterlimit:4;stroke-dasharray:none;stroke-opacity:1;paint-order:stroke fill markers"
       d="m 19.687233,-5.7898974 c 5.193214,0 10.386427,0 15.579641,0 0,3.8599316 0,7.7198632 0,11.5797948 -5.193214,0 -10.386427,0 -15.579641,0 0,-3.8599316 0,-7.7198632 0,-11.5797948 z" />
    <path
       id="rect1722"
       style="opacity:1;fill:#000000;fill-opacity:1;stroke:#000000;stroke-width:1.39843;stroke-miterlimit:4;stroke-dasharray:none;stroke-opacity:1;paint-order:stroke fill markers"
       d="m -21.384283,-0.29983813 c 3.639115,0 7.278231,0 10.917346,0 -3.078308,1.05214572 -8.131353,0.91933491 -10.917346,0 z" />
    <path
       id="rect1722-5"
       style="opacity:1;fill:#060708;fill-opacity:1;stroke:#000000;stroke-width:1.3065;stroke-miterlimit:4;stroke-dasharray:none;stroke-opacity:1;paint-order:stroke fill markers"
       d="m 4.9669461,-0.25251248 c 3.771717,0 7.5434339,0 11.3151509,0 -3.40514,0.87476267 -8.1171299,0.78820821 -11.3151509,0 z" />
    <path
       id="path1783"
       style="opacity:1;fill:#000000;fill-opacity:1;stroke:#000000;stroke-width:0.851815;stroke-miterlimit:4;stroke-dasharray:none;stroke-opacity:1;paint-order:stroke fill markers"
       inkscape:transform-center-x="-0.19460671"
       inkscape:transform-center-y="-0.19444946"
       d="M 45.665178,0.18164964 C 43.574249,2.0036797 39.464639,1.4924833 42.087695,-1.2729466 c 1.272493,0.28392482 2.286719,1.20528142 3.577483,1.45459624 z" />
    <path
       id="path1783-3"
       style="opacity:1;fill:#000003;fill-opacity:1;stroke:#000000;stroke-width:0.851815;stroke-miterlimit:4;stroke-dasharray:none;stroke-opacity:1;paint-order:stroke fill markers"
       inkscape:transform-center-x="-0.19460671"
       inkscape:transform-center-y="-0.19444946"
       d="M 18.799892,0.06392839 C 16.708963,1.8859584 12.599353,1.374762 15.222409,-1.3906679 c 1.272493,0.2839248 2.286719,1.20528146 3.577483,1.45459629 z" />
    <path
       id="path1865"
       style="fill:none;stroke:#000000;stroke-width:0.264583px;stroke-linecap:butt;stroke-linejoin:miter;stroke-opacity:1"
       d="m -0.61217608,-5.6990922 c -0.009419,4.1258145 -0.0188383,8.2516291 -0.0282575,12.3774436" />
    <path
       id="path1867"
       style="fill:none;stroke:#000000;stroke-width:0.264583px;stroke-linecap:butt;stroke-linejoin:miter;stroke-opacity:1"
       d="m -26.934312,-5.9836648 c 0.01487,4.1350732 0.02973,8.2701464 0.0446,12.4052196" />
    <path
       id="path1869"
       style="fill:none;stroke:#000000;stroke-width:0.264583px;stroke-linecap:butt;stroke-linejoin:miter;stroke-opacity:1"
       d="m 27.194098,-5.4086379 c -0.01954,3.8071945 -0.03909,7.6143889 -0.05863,11.4215834" />
    <path
       id="rect1722-56"
       style="opacity:1;fill:#000000;fill-opacity:1;stroke:#000000;stroke-width:1.39843;stroke-miterlimit:4;stroke-dasharray:none;stroke-opacity:1;paint-order:stroke fill markers"
       d="m 31.707823,-0.12344138 c 3.639115,0 7.278231,0 10.917346,0 -3.078308,1.05214563 -8.131353,0.91933498 -10.917346,0 z" />
    <path
       id="path1783-3-2"
       style="opacity:1;fill:#000003;fill-opacity:1;stroke:#000000;stroke-width:0.851815;stroke-miterlimit:4;stroke-dasharray:none;stroke-opacity:1;paint-order:stroke fill markers"
       inkscape:transform-center-x="-0.19460671"
       inkscape:transform-center-y="-0.19444946"
       d="M -8.1716976,0.08289938 C -10.262627,1.9049293 -14.372238,1.3937329 -11.74918,-1.3716969 c 1.272493,0.2839248 2.2867187,1.20528146 3.5774824,1.45459628 z" />
    <g
       aria-label="NIL"
       transform="scale(0.95189689,1.0505339)"
       id="text1929"
       style="font-size:6.67812px;line-height:1.25;font-family:sans-serif;letter-spacing:0px;fill:#000000;fill-opacity:1;stroke-width:0.00834771">
      <path
         id="path4003"
         style="fill:#000000;fill-opacity:1;stroke-width:0.00834771"
         d="m 50.045382,-2.3468899 c 2.565537,1.72969376 3.181476,5.3859471 3.350073,0.3521478 1.676689,2.79411061 -0.933478,6.9099974 -1.891609,1.76470313 -1.378309,-2.51757513 -0.91406,6.14810687 -1.511386,0.56319555 l 0.09913,-1.43983078 z" />
      <path
         id="path4005"
         style="fill:#000000;fill-opacity:1;stroke-width:0.00834771"
         d="m 55.040929,-2.3468899 c 2.147386,2.52454533 -0.737733,6.4955012 0,1.3064182 0,-0.4354727 0,-0.8709455 0,-1.3064182 z" />
      <path
         id="path4007"
         style="fill:#000000;fill-opacity:1;stroke-width:0.00834771"
         d="m 57.010453,-2.3468899 c 1.442057,1.3421375 -0.243645,5.44022 3.024499,4.6420974 -4.101664,2.0472677 -2.907381,-2.36118509 -3.024499,-4.6420974 z" />
    </g>
  </g>
</svg>
